<svg width="22" height="22" viewBox="0 0 22 22" fill="none" xmlns="http://www.w3.org/2000/svg">
<path d="M14.6666 19.25V17.75C14.6666 15.8644 14.6666 14.9216 14.0808 14.3358C13.4951 13.75 12.5522 13.75 10.6666 13.75H10.4166C8.53101 13.75 7.5882 13.75 7.00241 14.3358C6.41663 14.9216 6.41663 15.8644 6.41663 17.75V19.25" stroke="#808080"/>
<path d="M6.41663 7.33337H11" stroke="#808080" stroke-linecap="round"/>
<path d="M3 8.5C3 5.67157 3 4.25736 3.87868 3.37868C4.75736 2.5 6.17157 2.5 9 2.5H14.5842C15.0348 2.5 15.2602 2.5 15.4584 2.59078C15.6567 2.68157 15.8039 2.85214 16.0983 3.1933L18.5141 5.99254C18.7544 6.27101 18.8746 6.41025 18.9373 6.57887C19 6.74749 19 6.93141 19 7.29924V13.5C19 16.3284 19 17.7426 18.1213 18.6213C17.2426 19.5 15.8284 19.5 13 19.5H9C6.17157 19.5 4.75736 19.5 3.87868 18.6213C3 17.7426 3 16.3284 3 13.5V8.5Z" stroke="#808080"/>
</svg>
