<svg width="168" height="52" viewBox="0 0 168 52" fill="none" xmlns="http://www.w3.org/2000/svg">
<g clip-path="url(#clip0_1_569)">
<path d="M58.6843 32.8735V15.4858H64.2724C65.3141 15.4858 66.1937 15.6726 66.9107 16.0462C67.6277 16.4197 68.1707 16.9433 68.5404 17.6168C68.9161 18.2904 69.1036 19.0743 69.1036 19.9686C69.1036 20.6704 68.9918 21.293 68.7676 21.8364C68.5434 22.3798 68.2299 22.8297 67.8264 23.1863C67.4289 23.5372 66.961 23.7806 66.4233 23.9165V24.0184C67.0172 24.0636 67.5685 24.2731 68.0784 24.6466C68.5883 25.0145 68.9971 25.5154 69.3053 26.1494C69.6188 26.7833 69.7762 27.5219 69.7762 28.3653C69.7762 29.2539 69.5857 30.0378 69.2047 30.717C68.8291 31.3905 68.2659 31.9198 67.5159 32.3047C66.7652 32.6839 65.8353 32.8735 64.7261 32.8735H58.6843ZM59.7346 31.8887H64.7261C66.0198 31.8887 67.0142 31.5604 67.7087 30.9038C68.4091 30.2473 68.7593 29.401 68.7593 28.3653C68.7593 27.6351 68.5883 26.9814 68.2464 26.404C67.9104 25.8267 67.4425 25.3711 66.8433 25.0372C66.244 24.6975 65.5496 24.5277 64.7592 24.5277H59.7346V31.8887ZM59.7346 23.5599H64.6332C65.3674 23.5599 65.9891 23.3986 66.499 23.076C67.0142 22.7533 67.4064 22.3203 67.675 21.777C67.9495 21.2336 68.0867 20.6308 68.0867 19.9686C68.0867 18.8932 67.7566 18.0414 67.0953 17.4131C66.4345 16.7848 65.4934 16.4707 64.2724 16.4707H59.7346V23.5599ZM74.576 15.4858V32.8735H73.5508V15.4858H74.576ZM83.6172 33.1452C82.553 33.1452 81.606 32.8565 80.7772 32.2792C79.9479 31.6962 79.2954 30.8953 78.8192 29.8765C78.343 28.8577 78.1052 27.6974 78.1052 26.3956C78.1052 25.0881 78.343 23.9278 78.8192 22.9147C79.2954 21.8958 79.9479 21.095 80.7772 20.512C81.606 19.929 82.553 19.6375 83.6172 19.6375C84.6814 19.6375 85.6285 19.929 86.4573 20.512C87.2866 21.095 87.9391 21.8958 88.4153 22.9147C88.8915 23.9334 89.1293 25.0938 89.1293 26.3956C89.1293 27.6974 88.8915 28.8577 88.4153 29.8765C87.9391 30.8953 87.2866 31.6962 86.4573 32.2792C85.6285 32.8565 84.6814 33.1452 83.6172 33.1452ZM83.6172 32.1858C84.5194 32.1858 85.3061 31.9283 85.9781 31.4132C86.656 30.8982 87.1801 30.202 87.5499 29.3247C87.9249 28.4473 88.1124 27.471 88.1124 26.3956C88.1124 25.3202 87.9249 24.3466 87.5499 23.475C87.1742 22.5977 86.6507 21.9015 85.9781 21.3864C85.3061 20.8657 84.5194 20.6053 83.6172 20.6053C82.7151 20.6053 81.9284 20.8657 81.2564 21.3864C80.5838 21.9015 80.0603 22.5977 79.6846 23.475C79.3096 24.3466 79.1221 25.3202 79.1221 26.3956C79.1221 27.471 79.3066 28.4473 79.6763 29.3247C80.052 30.202 80.5755 30.8982 81.2475 31.4132C81.9254 31.9283 82.7151 32.1858 83.6172 32.1858ZM97.5003 33.1452C96.4024 33.1452 95.4364 32.8537 94.6017 32.2707C93.767 31.682 93.1146 30.8783 92.6437 29.8595C92.1787 28.8407 91.9463 27.6861 91.9463 26.3956C91.9463 25.1051 92.1817 23.9504 92.652 22.9316C93.1229 21.9128 93.7753 21.1091 94.61 20.5205C95.4447 19.9318 96.4054 19.6375 97.492 19.6375C98.3101 19.6375 99.0549 19.8073 99.7275 20.1469C100.405 20.4865 100.965 20.9591 101.408 21.5647C101.856 22.1703 102.142 22.8722 102.265 23.6703H101.223C101.055 22.7873 100.635 22.0571 99.9623 21.4798C99.2957 20.8968 98.4752 20.6053 97.5003 20.6053C96.6266 20.6053 95.8481 20.8544 95.1649 21.3525C94.481 21.8449 93.9433 22.5269 93.5511 23.3986C93.1589 24.2646 92.9631 25.2579 92.9631 26.3786C92.9631 27.4823 93.1536 28.4728 93.5346 29.3501C93.9155 30.2217 94.4473 30.9123 95.1312 31.4217C95.8144 31.9311 96.6041 32.1858 97.5003 32.1858C98.1339 32.1858 98.7106 32.0585 99.2318 31.8037C99.7583 31.5491 100.198 31.1868 100.551 30.717C100.903 30.2473 101.136 29.6982 101.248 29.07H102.29C102.167 29.8737 101.887 30.5812 101.45 31.1925C101.013 31.8037 100.456 32.282 99.7778 32.6273C99.0999 32.9725 98.3409 33.1452 97.5003 33.1452ZM106.676 27.7795L106.659 26.2937H106.928L113.382 19.8327H114.718L108.794 25.7758L108.693 25.8182L106.676 27.7795ZM105.786 32.8735V15.4858H106.811V32.8735H105.786ZM113.676 32.8735L108.231 25.9201L108.97 25.2324L114.987 32.8735H113.676Z" fill="#606060"/>
<path d="M118.729 32.8735V15.4858H127.972V16.0292H119.267V23.908H127.165V24.4514H119.267V32.8735H118.729ZM132.705 15.4858V32.8735H132.167V15.4858H132.705ZM141.845 33.1452C140.831 33.1452 139.92 32.8508 139.114 32.2622C138.307 31.6679 137.669 30.8613 137.198 29.8426C136.733 28.8181 136.501 27.6663 136.501 26.3871C136.501 25.1023 136.733 23.9504 137.198 22.9316C137.669 21.9128 138.307 21.1091 139.114 20.5205C139.92 19.9262 140.831 19.629 141.845 19.629C142.859 19.629 143.766 19.9262 144.568 20.5205C145.374 21.1148 146.013 21.9213 146.483 22.9401C146.954 23.9589 147.189 25.1079 147.189 26.3871C147.189 27.6663 146.954 28.8181 146.483 29.8426C146.018 30.8613 145.382 31.6679 144.576 32.2622C143.769 32.8508 142.859 33.1452 141.845 33.1452ZM141.845 32.6019C142.758 32.6019 143.576 32.3301 144.298 31.7868C145.027 31.2434 145.601 30.5019 146.021 29.5624C146.441 28.6228 146.651 27.5644 146.651 26.3871C146.651 25.2098 146.438 24.1542 146.013 23.2203C145.592 22.2807 145.021 21.5392 144.298 20.9959C143.576 20.4469 142.758 20.1724 141.845 20.1724C140.937 20.1724 140.12 20.4469 139.391 20.9959C138.669 21.5392 138.094 22.2807 137.669 23.2203C137.248 24.1542 137.038 25.2098 137.038 26.3871C137.038 27.5644 137.248 28.6228 137.669 29.5624C138.089 30.5019 138.66 31.2434 139.383 31.7868C140.111 32.3301 140.932 32.6019 141.845 32.6019ZM153.293 32.8735L149.462 19.8327H150.033L153.629 32.1264H153.697L157.327 19.8327H157.864L161.495 32.1264H161.562L165.158 19.8327H165.73L161.898 32.8735H161.158L157.629 20.8516H157.562L154.033 32.8735H153.293Z" fill="#606060"/>
<path d="M34.7055 21.1L48.5062 27.4246L40.1594 36.4027L26.3735 30.1308L34.7055 21.1Z" fill="white" fill-opacity="0.71" stroke="#6F6D6D" stroke-width="0.5" stroke-linejoin="round"/>
<path d="M48.5072 27.4943V39.4483L39.9297 48.7127L40.098 36.6005" stroke="#6F6D6D" stroke-width="0.5" stroke-linecap="square" stroke-linejoin="round"/>
<path d="M26.3239 30.184L26.0281 42.138L39.9295 48.7127" stroke="#6F6D6D" stroke-width="0.5" stroke-linecap="round" stroke-linejoin="round"/>
<path d="M34.5092 18.2299L38.9458 19.7241V22.7126L38.0585 30.4827L29.4811 39.4483L26.5233 37.954L26.2275 29.2873L34.5092 18.2299Z" fill="white"/>
<path d="M8.58078 4.36438L22.3814 10.689L14.0346 19.6671L0.248779 13.3952L8.58078 4.36438Z" fill="white" fill-opacity="0.71" stroke="#6F6D6D" stroke-width="0.5" stroke-linejoin="round"/>
<path d="M22.3824 10.7587L21.4951 22.7127L13.8049 31.6782L13.9732 19.8649" stroke="#6F6D6D" stroke-width="0.5" stroke-linecap="square" stroke-linejoin="round"/>
<path d="M0.199219 13.4482V25.7011L13.0648 31.7608" stroke="#6F6D6D" stroke-width="0.5" stroke-linecap="round" stroke-linejoin="round"/>
<path d="M25.0443 12.2529L25.34 21.8161L21.495 27.1955L18.833 26.0001L23.8612 13.7472L25.0443 12.2529Z" fill="white"/>
<path d="M35.8886 0.18042L49.6893 6.50506L41.3425 15.4831L27.5566 9.21121L35.8886 0.18042Z" fill="white" fill-opacity="0.71" stroke="#6F6D6D" stroke-width="0.5" stroke-linejoin="round"/>
<path d="M27.507 9.2644L27.2112 21.2184L41.1126 27.7931" stroke="#6F6D6D" stroke-width="0.5" stroke-linecap="round" stroke-linejoin="round"/>
<path d="M27.7063 13.4483L36.0845 14.9426L47.0281 21.2184L42.8873 25.7012L39.0422 26.2989L38.65 28.6897L39.0422 30.4828L30.4648 39.4483L29.5774 38.5518L24.845 28.3909L17.4507 25.1035L20.4084 17.3334L25.1408 12.2529L27.7063 13.4483Z" fill="white"/>
<path d="M25.1442 12.1345L38.9449 18.4592L30.598 27.4372L16.8123 21.1653L25.1442 12.1345Z" fill="white" fill-opacity="0.71" stroke="#6F6D6D" stroke-width="0.5" stroke-linejoin="round"/>
<path d="M38.9459 18.5287V30.4827L30.3684 39.7471L30.5367 27.6349" stroke="#6F6D6D" stroke-width="0.5" stroke-linecap="square" stroke-linejoin="round"/>
<path d="M16.8593 21.2184L16.5635 33.4713L30.1691 39.7471" stroke="#6F6D6D" stroke-width="0.5" stroke-linecap="round" stroke-linejoin="round"/>
<path d="M14.493 23.9081L25.0444 28.6897L28.2979 36.7587V41.9999L24.5 45.4999L15.5796 35.2644L8.28174 30.7816L14.493 23.9081Z" fill="white"/>
<path d="M14.4963 23.7897L28.2969 30.1143L19.9501 39.0924L6.16431 32.8205L14.4963 23.7897Z" fill="white" fill-opacity="0.71" stroke="#6F6D6D" stroke-width="0.5" stroke-linejoin="round"/>
<path d="M28.2979 30.184V42.138L19.7205 51.4024L19.8888 39.2902" stroke="#6F6D6D" stroke-width="0.5" stroke-linecap="square" stroke-linejoin="round"/>
<path d="M6.11475 32.8735V45.063L19.7204 51.4023" stroke="#6F6D6D" stroke-width="0.5" stroke-linecap="round" stroke-linejoin="round"/>
<path d="M49.6903 6.57471V18.5287L41.1128 27.7931L41.2811 15.6809" stroke="#6F6D6D" stroke-width="0.5" stroke-linecap="square" stroke-linejoin="round"/>
</g>
<defs>
<clipPath id="clip0_1_569">
<rect width="168" height="52" fill="white"/>
</clipPath>
</defs>
</svg>
