<svg width="24" height="25" viewBox="0 0 24 25" fill="none" xmlns="http://www.w3.org/2000/svg">
<path d="M21 10.8674L21 9.86743C21 8.93746 21 8.47247 20.8978 8.09097C20.6204 7.0557 19.8117 6.24706 18.7765 5.96965C18.395 5.86743 17.93 5.86743 17 5.86743" stroke="#808080" stroke-linejoin="round"/>
<path d="M3 10.8674L3 9.86743C3 8.93746 3 8.47247 3.10222 8.09097C3.37962 7.0557 4.18827 6.24706 5.22354 5.96965C5.60504 5.86743 6.07003 5.86743 7 5.86743" stroke="#808080" stroke-linejoin="round"/>
<path d="M21 14.8674L21 15.8674C21 16.7974 21 17.2624 20.8978 17.6439C20.6204 18.6792 19.8117 19.4878 18.7765 19.7652C18.395 19.8674 17.93 19.8674 17 19.8674" stroke="#808080" stroke-linejoin="round"/>
<path d="M3 14.8674L3 15.8674C3 16.7974 3 17.2624 3.10222 17.6439C3.37962 18.6792 4.18827 19.4878 5.22354 19.7652C5.60504 19.8674 6.07003 19.8674 7 19.8674" stroke="#808080" stroke-linejoin="round"/>
<path d="M12 15.8674L12 9.86743" stroke="#808080" stroke-linecap="round" stroke-linejoin="round"/>
<path d="M8 14.8674L8 10.8674" stroke="#808080" stroke-linecap="round" stroke-linejoin="round"/>
<path d="M16 14.8674L16 10.8674" stroke="#808080" stroke-linecap="round" stroke-linejoin="round"/>
</svg>
