<svg width="24" height="25" viewBox="0 0 24 25" fill="none" xmlns="http://www.w3.org/2000/svg">
<path d="M9.5 15.3674L9.5 12.3674" stroke="#808080" stroke-linecap="round"/>
<path d="M14.5 15.3674L14.5 12.3674" stroke="#808080" stroke-linecap="round"/>
<path d="M3 7.36743H21V7.36743C19.5955 7.36743 18.8933 7.36743 18.3889 7.70449C18.1705 7.85041 17.983 8.03791 17.8371 8.25629C17.5 8.76074 17.5 9.46297 17.5 10.8674V16.3674C17.5 18.253 17.5 19.1959 16.9142 19.7816C16.3284 20.3674 15.3856 20.3674 13.5 20.3674H10.5C8.61438 20.3674 7.67157 20.3674 7.08579 19.7816C6.5 19.1959 6.5 18.253 6.5 16.3674V10.8674C6.5 9.46297 6.5 8.76074 6.16294 8.25629C6.01702 8.03791 5.82952 7.85041 5.61114 7.70449C5.10669 7.36743 4.40446 7.36743 3 7.36743V7.36743Z" stroke="#808080" stroke-linecap="round"/>
<path d="M9.5 4.36767C9.5 4.36767 10 3.36743 12 3.36743C14 3.36743 14.5 4.36743 14.5 4.36743" stroke="#808080" stroke-linecap="round"/>
</svg>
